<svg version="1.1" id="Layer_1" xmlns="http://www.w3.org/2000/svg" xmlns:xlink="http://www.w3.org/1999/xlink" x="0px" y="0px"
	 width="100%" viewBox="0 0 95 102" enable-background="new 0 0 95 102" xml:space="preserve">
<path fill="#FF851B" opacity="1.000000" stroke="none" 
	d="
M46.437500,103.000000 
	C45.220692,101.935226 44.673813,100.453354 43.626404,99.869690 
	C32.142849,93.470589 20.654905,87.070175 8.998017,80.996658 
	C5.273251,79.055969 3.864841,76.790337 3.964102,72.510208 
	C4.273078,59.187012 4.132153,45.851700 4.032687,32.522083 
	C4.012167,29.772068 4.622200,28.013313 7.312862,26.588530 
	C19.958855,19.892096 32.502625,12.998850 44.994762,6.018155 
	C48.330669,4.154028 51.030418,3.862777 54.605755,5.926582 
	C68.097900,13.714709 81.824203,21.097210 95.731422,28.315777 
	C96.000000,44.354229 96.000000,60.708454 95.646217,77.472847 
	C93.771942,78.862839 92.305107,79.940720 90.722382,80.806824 
	C79.091415,87.171539 67.417397,93.458046 55.821178,99.885078 
	C54.661533,100.527794 53.930141,101.943199 53.000000,103.000000 
	C50.958332,103.000000 48.916668,103.000000 46.437500,103.000000 
M78.497459,23.958563 
	C70.046822,19.316856 61.681610,14.505539 53.076221,10.171062 
	C51.272156,9.262365 48.181713,9.333547 46.368206,10.273375 
	C34.709892,16.315151 23.182386,22.619967 11.779343,29.131586 
	C10.170177,30.050488 8.544109,32.546883 8.504022,34.348240 
	C8.222670,46.990616 8.241202,59.644470 8.490583,72.288208 
	C8.524416,74.003555 9.962803,76.412315 11.455760,77.263260 
	C23.007584,83.847542 34.669674,90.249321 46.472179,96.371078 
	C48.253593,97.295059 51.347084,97.261223 53.141888,96.332939 
	C64.952789,90.224197 76.637314,83.859520 88.182014,77.261536 
	C89.733696,76.374733 91.073662,73.736153 91.137398,71.862030 
	C91.442703,62.885204 90.442825,53.793968 91.490005,44.930447 
	C92.745247,34.305889 89.545181,27.427755 78.497459,23.958563 
z"/>
<path fill="#FF851B" opacity="1.000000" stroke="none" 
	d="
M45.004623,67.789810 
	C43.593479,68.642509 42.363369,69.195877 41.133263,69.749245 
	C41.043785,68.615257 40.504425,67.262199 40.933620,66.380768 
	C45.857662,56.268318 50.928905,46.227551 55.970463,36.148655 
	C60.227184,36.625416 59.583035,38.676456 58.269875,41.266151 
	C53.851875,49.978893 49.538849,58.744865 45.004623,67.789810 
z"/>
<path fill="#FF851B" opacity="1.000000" stroke="none" 
	d="
M28.337841,49.552074 
	C27.098951,50.910583 26.124334,51.997181 24.957672,53.297894 
	C26.735312,55.289658 28.351885,57.100956 29.943483,58.884270 
	C27.111742,62.450947 25.356441,61.505859 18.104300,51.741028 
	C20.478092,49.965412 23.049809,47.910122 25.776644,46.086823 
	C26.538349,45.577515 27.757902,45.752937 28.767426,45.614250 
	C28.712322,46.836220 28.657219,48.058193 28.337841,49.552074 
z"/>
<path fill="#FF851B" opacity="1.000000" stroke="none" 
	d="
M71.737427,56.377136 
	C74.620659,54.174408 74.443512,52.414146 72.052505,50.181305 
	C71.076355,49.269737 71.064339,47.325726 70.613686,45.851429 
	C72.064980,46.323586 73.687172,46.529289 74.930000,47.326450 
	C77.138382,48.742931 79.116821,50.517891 81.567642,52.437553 
	C77.607002,55.946861 74.703476,58.519512 71.482895,61.373096 
	C69.071289,60.359138 69.195023,58.658295 71.737427,56.377136 
z"/>
</svg>