<svg width="116" height="30" viewBox="0 0 116 30" fill="none" xmlns="http://www.w3.org/2000/svg">
<g clip-path="url(#clip0_4891_4437)">
<path d="M83.3067 20.1389C80.854 20.1389 78.4035 20.1389 75.9509 20.1389C75.4219 20.1389 75.4028 20.1683 75.4684 20.6919C75.6504 22.1748 76.1837 23.4902 77.3454 24.4956C77.9803 25.0443 78.7442 25.3795 79.5632 25.5282C80.9196 25.7774 82.2697 25.7397 83.5479 25.1428C84.4028 24.7427 85.0969 24.1646 85.499 23.2912C85.6175 23.0315 85.7889 22.8953 86.1084 22.8995C87.5876 22.9163 89.0647 22.9058 90.5439 22.9079C90.946 22.9079 91.0497 23.0231 90.9396 23.4043C90.4466 25.1135 89.5345 26.5482 88.1378 27.6939C87.103 28.5422 85.9328 29.1182 84.6631 29.4994C83.4273 29.8701 82.1533 29.9979 80.8561 29.9916C79.6563 29.9853 78.4755 29.8555 77.3349 29.5162C74.7637 28.7496 72.7534 27.2645 71.4414 24.9019C70.3473 22.9351 69.9516 20.8238 69.9622 18.6036C69.9685 17.3846 70.104 16.1824 70.4341 15.0136C71.2361 12.1902 72.8782 9.99511 75.5531 8.65042C77.045 7.90058 78.6511 7.53194 80.3335 7.50471C81.4889 7.48586 82.6401 7.50052 83.7743 7.76024C86.5909 8.40955 88.8002 9.86944 90.1334 12.4709C91.2592 14.668 91.5575 16.9992 91.2401 19.4226C91.147 20.141 91.1385 20.1389 90.4106 20.1389C88.0426 20.1389 85.6746 20.1389 83.3067 20.1389ZM80.7186 16.5301C82.293 16.5301 83.8653 16.5217 85.4397 16.5363C85.7974 16.5405 85.9328 16.4128 85.8735 16.0818C85.7889 15.6043 85.7593 15.1058 85.5921 14.6596C84.9742 13.0238 83.7362 12.0519 82.02 11.7713C80.8223 11.5765 79.6097 11.61 78.4628 12.1504C77.6734 12.5232 77.0428 13.0615 76.5498 13.7674C76.0673 14.4586 75.7901 15.2335 75.5996 16.0462C75.5002 16.4693 75.5171 16.5259 75.9636 16.528C77.5486 16.5301 79.1357 16.528 80.7207 16.528L80.7186 16.5301Z" fill="white"/>
<path d="M115.563 18.7608C115.618 20.028 115.468 21.2742 115.112 22.4911C114.416 24.8873 113.094 26.8645 110.965 28.2322C108.899 29.5581 106.593 30.0377 104.144 29.9854C103.006 29.9602 101.882 29.8346 100.803 29.5141C98.1726 28.7391 96.0903 27.2436 94.7402 24.8265C93.6631 22.8954 93.2589 20.8197 93.2632 18.6351C93.2674 17.4014 93.4049 16.1887 93.7456 15.0095C94.4736 12.4897 95.8957 10.4434 98.1896 9.06936C100.128 7.90899 102.267 7.46285 104.521 7.48379C105.778 7.49427 107.02 7.60947 108.22 7.9781C110.451 8.66302 112.302 9.88832 113.629 11.8174C114.839 13.5768 115.445 15.5394 115.559 17.6528C115.58 18.0193 115.561 18.3879 115.561 18.7566L115.563 18.7608ZM110.082 18.4361C110.082 18.3879 110.082 18.3419 110.082 18.2937C110.055 16.8924 109.729 15.5687 108.959 14.3811C108.133 13.1118 106.969 12.3431 105.446 12.0834C103.812 11.8048 102.341 12.1378 101.061 13.1663C99.8529 14.136 99.2561 15.4535 98.9768 16.9469C98.6509 18.6937 98.744 20.3987 99.4296 22.045C100.238 23.9887 101.675 25.17 103.829 25.3753C106.246 25.6057 108.085 24.705 109.249 22.5644C109.951 21.2742 110.127 19.8751 110.082 18.434V18.4361Z" fill="white"/>
<path d="M43.5589 18.9346C43.597 20.0677 43.4298 21.3642 43.0468 22.621C42.3421 24.927 41.0491 26.8393 39.0007 28.1903C37.7521 29.0135 36.3661 29.5224 34.8826 29.7801C33.1453 30.0817 31.4079 30.0796 29.6875 29.7319C26.9746 29.1831 24.7314 27.874 23.1613 25.5659C21.7328 23.4651 21.2165 21.115 21.2271 18.6141C21.2334 17.1396 21.4324 15.6943 21.9318 14.314C22.7507 12.0457 24.158 10.2255 26.3016 8.99811C28.2823 7.86287 30.426 7.45863 32.6882 7.49214C33.8859 7.5089 35.0667 7.63876 36.2052 7.99274C38.7531 8.78237 40.7528 10.2632 42.0733 12.6007C43.1568 14.5193 43.5758 16.5824 43.5546 18.9367L43.5589 18.9346Z" fill="#FBFF4B"/>
<path d="M0 22.2105C0.645427 22.2105 1.15965 22.2105 1.67599 22.2105C2.6981 22.2105 3.7202 22.2167 4.7423 22.2063C5.01105 22.2042 5.14014 22.2649 5.19093 22.5644C5.44698 24.0997 6.65107 25.2475 8.19798 25.5973C9.12909 25.8089 10.0602 25.834 10.9913 25.7523C11.9711 25.6664 12.9276 25.4172 13.5434 24.5626C14.2629 23.5656 14.1338 21.9801 12.6419 21.3643C11.8145 21.0229 10.9447 20.8783 10.0708 20.7317C9.04233 20.56 8.01388 20.3861 6.99812 20.1578C6.20668 19.9798 5.41101 19.7787 4.65766 19.4855C3.10651 18.8802 1.7691 17.9921 1.05808 16.4065C0.634846 15.4598 0.518458 14.4712 0.63273 13.449C0.916295 10.9377 2.35528 9.31861 4.65131 8.35093C6.21726 7.69115 7.85728 7.51102 9.53962 7.51731C10.7374 7.52359 11.9203 7.65555 13.0588 7.99696C15.4437 8.71329 17.3038 10.0726 18.2159 12.4541C18.4465 13.0573 18.5587 13.7087 18.6835 14.3476C18.7576 14.7288 18.6602 14.8084 18.2624 14.8084C16.8446 14.8105 15.4246 14.8042 14.0068 14.8126C13.6873 14.8126 13.5116 14.6869 13.4524 14.379C13.2217 13.16 12.5086 12.3347 11.3362 11.9012C9.91841 11.3775 8.49424 11.3545 7.09546 11.9514C5.76864 12.517 5.34117 14.268 6.32942 15.1561C6.69763 15.487 7.17799 15.7761 7.65625 15.8954C9.03598 16.241 10.4411 16.4945 11.8378 16.7772C13.5772 17.127 15.3315 17.4454 16.8467 18.4382C18.0148 19.2027 18.8338 20.2269 19.1808 21.6051C19.4813 22.8011 19.4665 23.9887 19.1152 25.1554C18.7237 26.4603 17.9217 27.495 16.7811 28.2595C15.4966 29.1203 14.0597 29.5476 12.534 29.7822C10.7776 30.0545 9.02963 30.0231 7.2965 29.7173C5.14014 29.3361 3.17846 28.5318 1.73101 26.8059C0.952269 25.8759 0.44016 24.8202 0.253938 23.618C0.184105 23.1698 0.0952269 22.7236 0.00423231 22.2063L0 22.2105Z" fill="white"/>
<path d="M63.8211 18.4445C63.8211 20.0363 63.8211 21.6281 63.8211 23.2221C63.8211 23.4483 63.8295 23.6745 63.8486 23.8986C63.8867 24.3552 64.2105 24.7155 64.676 24.7322C65.8526 24.7741 67.0292 24.7825 68.2079 24.8014C68.6946 24.8097 68.7157 24.8223 68.7157 25.3041C68.7157 26.5042 68.7073 27.7044 68.7221 28.9046C68.7263 29.2229 68.6438 29.3486 68.301 29.3381C67.3275 29.313 66.3499 29.3716 65.3807 29.3025C63.8211 29.1936 62.325 28.8271 61.0405 27.8803C59.8745 27.0216 59.1147 25.8905 58.7338 24.5018C58.4566 23.4965 58.3572 22.4764 58.3593 21.4396C58.3635 18.7063 58.3635 15.9729 58.3635 13.2395C58.3635 12.6489 58.3551 12.6426 57.7604 12.6426C56.8103 12.6426 55.8601 12.6342 54.9121 12.6468C54.5946 12.651 54.491 12.5316 54.4931 12.2279C54.5037 10.9921 54.5037 9.75633 54.4931 8.52056C54.4931 8.24199 54.5968 8.14354 54.8761 8.14773C55.621 8.15611 56.368 8.17915 57.1108 8.12888C57.4536 8.10584 57.8239 7.98645 58.1138 7.80423C58.6471 7.47329 58.7254 6.8952 58.7296 6.32758C58.7402 4.96195 58.7338 3.59422 58.7338 2.22858C58.7338 1.86692 58.9194 1.6861 59.2904 1.6861C60.5537 1.6861 61.815 1.6861 63.0783 1.6861C63.4649 1.6861 63.6581 1.87181 63.6581 2.24324C63.6581 4.02569 63.6581 5.80814 63.6581 7.59059C63.6581 8.14773 63.6624 8.15192 64.2147 8.15402C65.3807 8.15402 66.5467 8.16239 67.7127 8.14983C68.0343 8.14564 68.1655 8.24827 68.1613 8.57921C68.1486 9.79194 68.1507 11.0026 68.1613 12.2153C68.1634 12.5421 68.028 12.6531 67.7063 12.6489C66.5763 12.6384 65.4463 12.6447 64.3163 12.6447C63.8634 12.6447 63.8232 12.6845 63.8211 13.1348C63.819 14.9047 63.8211 16.6767 63.8211 18.4466H63.8232L63.8211 18.4445Z" fill="white"/>
<path d="M51.5813 0.00836378C51.5813 0.245046 51.5813 0.420987 51.5813 0.596928C51.5813 8.464 51.5813 16.3311 51.5813 24.196C51.5813 24.7783 51.6003 24.7972 52.1844 24.7993C52.6288 24.7993 53.0731 24.8076 53.5197 24.7993C53.7545 24.7951 53.8857 24.8747 53.8857 25.1218C53.8857 26.4414 53.89 27.7609 53.873 29.0784C53.873 29.1643 53.708 29.3193 53.6191 29.3193C52.1336 29.3235 50.6353 29.447 49.1963 28.9318C48.0219 28.5087 47.1712 27.7484 46.6675 26.6089C46.2655 25.6957 46.1893 24.726 46.1893 23.7541C46.1808 15.9834 46.1893 8.21056 46.1787 0.439838C46.1787 0.0963342 46.2761 -0.00210889 46.6231 0.00208018C48.1383 0.020931 49.6534 0.0104583 51.1665 0.0104583H51.5813V0.00836378Z" fill="white"/>
</g>
<defs>
<clipPath id="clip0_4891_4437">
<rect width="115.574" height="30" fill="white"/>
</clipPath>
</defs>
</svg>
